<?xml version="1.0" encoding="UTF-8"?>
<svg version="1.1" xmlns="http://www.w3.org/2000/svg" width="50" height="50">
<path d="M0 0 C4.29238623 1.65091778 6.8793915 4.73754566 10 8 C14.29238623 6.34908222 16.8793915 3.26245434 20 0 C21.32 0.66 22.64 1.32 24 2 C22.34908222 6.29238623 19.26245434 8.8793915 16 12 C17.65091778 16.29238623 20.73754566 18.8793915 24 22 C23.34 23.32 22.68 24.64 22 26 C17.70761377 24.34908222 15.1206085 21.26245434 12 18 C7.70761377 19.65091778 5.1206085 22.73754566 2 26 C0.68 25.34 -0.64 24.68 -2 24 C-0.34908222 19.70761377 2.73754566 17.1206085 6 14 C4.34908222 9.70761377 1.26245434 7.1206085 -2 4 C-1.34 2.68 -0.68 1.36 0 0 Z " fill="#218AE5" transform="translate(14,12)"/>
</svg>
